# xmcd
#
# Track frame offsets:
# 150
# 14507
# 28792
# 41982
# 56700
# 71480
# 85137
# 99682
# 113495
# 127145
# 141210
# 154055
# 167645
# 176705
# 188027
# 200435
# 210420
# 223465
# 236947
# 248795
#
# Disc length: 3456 seconds
#
#
# Revision: 0
# Processed by: cddbd v1.4PL0 Copyright (c) Steve Scherf et al.
# Submitted via: FreeRIP 2.52 
#
DISCID=2f0d7e14
DTITLE=Various Artist - Essential Masters: Gospel
DYEAR=1995
DGENRE=Gospel
TTITLE0=It' Nobody's Fault But Mine
TTITLE1=Take Your Burden To The Lord
TTITLE2=True Friendship
TTITLE3=King Of Kings
TTITLE4=Didn't It Rain
TTITLE5=Them Bones
TTITLE6=He Is My Story
TTITLE7=Memphis Flu
TTITLE8=Thou Carest Lord, For Me
TTITLE9=Twelve Gates To The City
TTITLE10=If You See My Saviour
TTITLE11=Precious Lord, Take My Hand
TTITLE12=Rock My Soul
TTITLE13=Shadrack
TTITLE14=Go Down Moses
TTITLE15=Book Of The Seven Seals
TTITLE16=Strange Things Happening Every Day
TTITLE17=I Want Two Wings
TTITLE18=Precious Memories
TTITLE19=Amazing Grace
EXTD=
EXTT0=Blind Willie Johnson
EXTT1=Washington Phillips
EXTT2=Rev. J.C.Burnett
EXTT3=Rev. Johnnie Blakely
EXTT4=Norfolk Jubilee Quartet
EXTT5=Mitchell's Christian Singers
EXTT6=Arizona Dranes
EXTT7=Elder Curry and His Congregation
EXTT8=Holy Ghost Sanctified Singers
EXTT9=Blind Gary Davis
EXTT10=Thomas A. Dorsey
EXTT11=Heavenly Gospel Singers
EXTT12=Golden Gate (Jubilee) Quartet
EXTT13=Louis Armstrong
EXTT14=Southern Sons
EXTT15=Dixie Humingbirds
EXTT16=Sister Rosetta Tharpe
EXTT17=Rev. Utah Smith
EXTT18=Roberta Martin Singers
EXTT19=Mahalia Jackson
PLAYORDER=
